<mxfile host="app.diagrams.net" agent="Mozilla/5.0 (Windows NT 10.0; Win64; x64) AppleWebKit/537.36 (KHTML, like Gecko) Chrome/128.0.0.0 Safari/537.36" version="24.7.12">
  <diagram name="Page-1" id="pBK8Rq--WNrcM6MQ0af0">
    <mxGraphModel dx="1335" dy="671" grid="1" gridSize="10" guides="1" tooltips="1" connect="1" arrows="1" fold="1" page="1" pageScale="1" pageWidth="1700" pageHeight="1100" math="0" shadow="0">
      <root>
        <mxCell id="0" />
        <mxCell id="1" parent="0" />
        <mxCell id="js_wEQPTcVn-sKDrNsyD-1" value="&lt;p style=&quot;line-height: 130%; font-size: 16px;&quot;&gt;CSV File&lt;/p&gt;" style="rounded=1;whiteSpace=wrap;html=1;" parent="1" vertex="1">
          <mxGeometry x="110" y="380" width="160" height="90" as="geometry" />
        </mxCell>
        <mxCell id="js_wEQPTcVn-sKDrNsyD-3" value="&lt;p style=&quot;line-height: 130%; font-size: 16px;&quot;&gt;Transformed Folder&lt;/p&gt;" style="rounded=1;whiteSpace=wrap;html=1;" parent="1" vertex="1">
          <mxGeometry x="1100" y="370" width="160" height="90" as="geometry" />
        </mxCell>
        <mxCell id="js_wEQPTcVn-sKDrNsyD-4" value="&lt;p style=&quot;line-height: 130%; font-size: 16px;&quot;&gt;God Folder&lt;/p&gt;" style="rounded=1;whiteSpace=wrap;html=1;" parent="1" vertex="1">
          <mxGeometry x="1110" y="630" width="160" height="90" as="geometry" />
        </mxCell>
        <mxCell id="js_wEQPTcVn-sKDrNsyD-5" value="&lt;p style=&quot;line-height: 130%; font-size: 16px;&quot;&gt;Raw Folder&lt;/p&gt;" style="rounded=1;whiteSpace=wrap;html=1;" parent="1" vertex="1">
          <mxGeometry x="440" y="370" width="160" height="90" as="geometry" />
        </mxCell>
        <mxCell id="js_wEQPTcVn-sKDrNsyD-8" value="" style="verticalLabelPosition=bottom;verticalAlign=top;html=1;strokeWidth=2;shape=mxgraph.arrows2.arrow;dy=0.6;dx=40;notch=0;" parent="1" vertex="1">
          <mxGeometry x="290" y="420" width="140" height="20" as="geometry" />
        </mxCell>
        <mxCell id="js_wEQPTcVn-sKDrNsyD-9" value="&lt;font style=&quot;font-size: 17px;&quot;&gt;Extraxt&lt;/font&gt;" style="text;strokeColor=none;align=center;fillColor=none;html=1;verticalAlign=middle;whiteSpace=wrap;rounded=0;" parent="1" vertex="1">
          <mxGeometry x="280" y="390" width="130" height="30" as="geometry" />
        </mxCell>
        <mxCell id="js_wEQPTcVn-sKDrNsyD-10" value="&lt;font style=&quot;font-size: 17px;&quot;&gt;Storage&lt;/font&gt;" style="text;strokeColor=none;align=center;fillColor=none;html=1;verticalAlign=middle;whiteSpace=wrap;rounded=0;" parent="1" vertex="1">
          <mxGeometry x="775" y="350" width="130" height="30" as="geometry" />
        </mxCell>
        <mxCell id="js_wEQPTcVn-sKDrNsyD-11" value="&lt;font style=&quot;font-size: 17px;&quot;&gt;Storage&lt;/font&gt;" style="text;strokeColor=none;align=center;fillColor=none;html=1;verticalAlign=middle;whiteSpace=wrap;rounded=0;" parent="1" vertex="1">
          <mxGeometry x="450" y="330" width="130" height="30" as="geometry" />
        </mxCell>
        <mxCell id="js_wEQPTcVn-sKDrNsyD-12" value="&lt;font style=&quot;font-size: 17px;&quot;&gt;Data Source&lt;/font&gt;" style="text;strokeColor=none;align=center;fillColor=none;html=1;verticalAlign=middle;whiteSpace=wrap;rounded=0;" parent="1" vertex="1">
          <mxGeometry x="125" y="340" width="130" height="30" as="geometry" />
        </mxCell>
        <mxCell id="js_wEQPTcVn-sKDrNsyD-14" value="" style="verticalLabelPosition=bottom;verticalAlign=top;html=1;strokeWidth=2;shape=mxgraph.arrows2.arrow;dy=0.6;dx=40;notch=0;" parent="1" vertex="1">
          <mxGeometry x="610" y="415" width="140" height="20" as="geometry" />
        </mxCell>
        <mxCell id="js_wEQPTcVn-sKDrNsyD-15" value="" style="verticalLabelPosition=bottom;verticalAlign=top;html=1;strokeWidth=2;shape=mxgraph.arrows2.arrow;dy=0.6;dx=40;notch=0;rotation=-1;" parent="1" vertex="1">
          <mxGeometry x="935" y="410" width="140" height="20" as="geometry" />
        </mxCell>
        <mxCell id="js_wEQPTcVn-sKDrNsyD-31" value="" style="verticalLabelPosition=bottom;verticalAlign=top;html=1;strokeWidth=2;shape=mxgraph.arrows2.arrow;dy=0.6;dx=40;notch=0;rotation=90;" parent="1" vertex="1">
          <mxGeometry x="1110" y="540" width="140" height="20" as="geometry" />
        </mxCell>
        <mxCell id="js_wEQPTcVn-sKDrNsyD-33" value="&lt;font style=&quot;font-size: 15px;&quot;&gt;Saved Selected Columns&lt;/font&gt;" style="rounded=0;whiteSpace=wrap;html=1;" parent="1" vertex="1">
          <mxGeometry x="760" y="390" width="160" height="60" as="geometry" />
        </mxCell>
        <mxCell id="js_wEQPTcVn-sKDrNsyD-34" value="&lt;font style=&quot;font-size: 17px;&quot;&gt;Storage&lt;/font&gt;" style="text;strokeColor=none;align=center;fillColor=none;html=1;verticalAlign=middle;whiteSpace=wrap;rounded=0;" parent="1" vertex="1">
          <mxGeometry x="1110" y="330" width="130" height="30" as="geometry" />
        </mxCell>
        <mxCell id="js_wEQPTcVn-sKDrNsyD-35" value="&lt;font style=&quot;font-size: 17px;&quot;&gt;Transform&lt;/font&gt;" style="text;strokeColor=none;align=center;fillColor=none;html=1;verticalAlign=middle;whiteSpace=wrap;rounded=0;" parent="1" vertex="1">
          <mxGeometry x="620" y="385" width="130" height="30" as="geometry" />
        </mxCell>
        <mxCell id="js_wEQPTcVn-sKDrNsyD-41" value="&lt;font style=&quot;font-size: 17px;&quot;&gt;Storage&lt;/font&gt;" style="text;strokeColor=none;align=center;fillColor=none;html=1;verticalAlign=middle;whiteSpace=wrap;rounded=0;" parent="1" vertex="1">
          <mxGeometry x="1130" y="730" width="130" height="30" as="geometry" />
        </mxCell>
      </root>
    </mxGraphModel>
  </diagram>
</mxfile>
